<svg width="648" height="723" viewBox="0 0 648 723" fill="none" xmlns="http://www.w3.org/2000/svg">
<rect x="31" y="10" width="570" height="48" fill="#DCDFE2" opacity="1"/>
<rect x="378" y="550" width="16" height="16" rx="6" fill="#CACED2"/>
<rect x="167" y="529" width="16" height="16" rx="6" fill="#CACED2"/>
<rect x="273" y="550" width="16" height="16" rx="6" fill="#CACED2"/>
<rect x="357" y="550" width="16" height="16" rx="6" fill="#CACED2"/>
<rect x="146" y="529" width="16" height="16" rx="6" fill="#CACED2"/>
<rect x="125" y="529" width="16" height="16" rx="6" fill="#CACED2"/>
<rect x="336" y="550" width="16" height="16" rx="6" fill="#CACED2"/>
<rect x="294" y="550" width="16" height="16" rx="6" fill="#CACED2"/>
<rect x="230" y="529" width="16" height="16" rx="6" fill="#CACED2"/>
<rect x="378" y="529" width="16" height="16" rx="6" fill="#CACED2"/>
<rect x="209" y="529" width="16" height="16" rx="6" fill="#CACED2"/>
<rect x="188" y="529" width="16" height="16" rx="6" fill="#CACED2"/>
<rect x="31" y="275" width="16" height="16" rx="6" fill="#CACED2"/>
<rect x="378" y="592" width="16" height="16" rx="6" fill="#CACED2"/>
<rect x="167" y="571" width="16" height="16" rx="6" fill="#CACED2"/>
<rect x="357" y="592" width="16" height="16" rx="6" fill="#CACED2"/>
<rect x="146" y="571" width="16" height="16" rx="6" fill="#CACED2"/>
<rect x="336" y="592" width="16" height="16" rx="6" fill="#CACED2"/>
<rect x="125" y="571" width="16" height="16" rx="6" fill="#CACED2"/>
<rect x="230" y="592" width="16" height="16" rx="6" fill="#CACED2"/>
<rect x="209" y="592" width="16" height="16" rx="6" fill="#CACED2"/>
<rect x="157" y="275" width="16" height="16" rx="6" fill="#CACED2"/>
<rect x="188" y="592" width="16" height="16" rx="6" fill="#CACED2"/>
<rect x="136" y="275" width="16" height="16" rx="6" fill="#CACED2"/>
<rect x="115" y="275" width="16" height="16" rx="6" fill="#CACED2"/>
<rect x="315" y="592" width="16" height="16" rx="6" fill="#CACED2"/>
<rect x="52" y="571" width="16" height="16" rx="6" fill="#CACED2"/>
<rect x="94" y="275" width="16" height="16" rx="6" fill="#CACED2"/>
<rect x="294" y="592" width="16" height="16" rx="6" fill="#CACED2"/>
<rect x="31" y="571" width="16" height="16" rx="6" fill="#CACED2"/>
<rect x="73" y="275" width="16" height="16" rx="6" fill="#CACED2"/>
<rect x="273" y="592" width="16" height="16" rx="6" fill="#CACED2"/>
<rect x="10" y="571" width="16" height="16" rx="6" fill="#CACED2"/>
<rect x="52" y="275" width="16" height="16" rx="6" fill="#CACED2"/>
<rect x="251" y="592" width="16" height="16" rx="6" fill="#CACED2"/>
<rect x="167" y="550" width="16" height="16" rx="6" fill="#CACED2"/>
<rect x="146" y="550" width="16" height="16" rx="6" fill="#CACED2"/>
<rect x="188" y="571" width="16" height="16" rx="6" fill="#CACED2"/>
<rect x="125" y="550" width="16" height="16" rx="6" fill="#CACED2"/>
<rect x="31" y="550" width="16" height="16" rx="6" fill="#CACED2"/>
<rect x="10" y="550" width="16" height="16" rx="6" fill="#CACED2"/>
<rect x="73" y="233" width="16" height="16" rx="6" fill="#CACED2"/>
<rect x="52" y="233" width="16" height="16" rx="6" fill="#CACED2"/>
<rect x="31" y="233" width="16" height="16" rx="6" fill="#CACED2"/>
<rect x="242" y="254" width="16" height="16" rx="6" fill="#CACED2"/>
<rect x="411" y="254" width="16" height="16" rx="6" fill="#CACED2"/>
<rect x="390" y="254" width="16" height="16" rx="6" fill="#CACED2"/>
<rect x="115" y="233" width="16" height="16" rx="6" fill="#CACED2"/>
<rect x="94" y="233" width="16" height="16" rx="6" fill="#CACED2"/>
<rect x="263" y="275" width="16" height="16" rx="6" fill="#CACED2"/>
<rect x="242" y="275" width="16" height="16" rx="6" fill="#CACED2"/>
<rect x="221" y="275" width="16" height="16" rx="6" fill="#CACED2"/>
<rect x="200" y="275" width="16" height="16" rx="6" fill="#CACED2"/>
<rect x="178" y="275" width="16" height="16" rx="6" fill="#CACED2"/>
<rect x="411" y="275" width="16" height="16" rx="6" fill="#CACED2"/>
<rect x="390" y="275" width="16" height="16" rx="6" fill="#CACED2"/>
<rect x="284" y="275" width="16" height="16" rx="6" fill="#CACED2"/>
<rect x="369" y="212" width="16" height="16" rx="6" fill="#CACED2"/>
<rect x="115" y="191" width="16" height="16" rx="6" fill="#CACED2"/>
<rect x="347" y="212" width="16" height="16" rx="6" fill="#CACED2"/>
<rect x="94" y="191" width="16" height="16" rx="6" fill="#CACED2"/>
<rect x="73" y="191" width="16" height="16" rx="6" fill="#CACED2"/>
<rect x="52" y="191" width="16" height="16" rx="6" fill="#CACED2"/>
<rect x="242" y="212" width="16" height="16" rx="6" fill="#CACED2"/>
<rect x="31" y="191" width="16" height="16" rx="6" fill="#CACED2"/>
<rect x="221" y="212" width="16" height="16" rx="6" fill="#CACED2"/>
<rect x="200" y="212" width="16" height="16" rx="6" fill="#CACED2"/>
<rect x="178" y="212" width="16" height="16" rx="6" fill="#CACED2"/>
<rect x="178" y="444" width="16" height="16" rx="6" fill="#CACED2"/>
<rect x="157" y="191" width="16" height="16" rx="6" fill="#CACED2"/>
<rect x="136" y="191" width="16" height="16" rx="6" fill="#CACED2"/>
<rect x="94" y="444" width="16" height="16" rx="6" fill="#CACED2"/>
<rect x="115" y="444" width="16" height="16" rx="6" fill="#CACED2"/>
<rect x="52" y="444" width="16" height="16" rx="6" fill="#CACED2"/>
<rect x="73" y="444" width="16" height="16" rx="6" fill="#CACED2"/>
<rect x="31" y="444" width="16" height="16" rx="6" fill="#CACED2"/>
<rect x="136" y="444" width="16" height="16" rx="6" fill="#CACED2"/>
<rect x="411" y="465" width="16" height="16" rx="6" fill="#CACED2"/>
<rect x="157" y="444" width="16" height="16" rx="6" fill="#CACED2"/>
<rect x="347" y="233" width="16" height="16" rx="6" fill="#CACED2"/>
<rect x="94" y="212" width="16" height="16" rx="6" fill="#CACED2"/>
<rect x="284" y="233" width="16" height="16" rx="6" fill="#CACED2"/>
<rect x="73" y="212" width="16" height="16" rx="6" fill="#CACED2"/>
<rect x="263" y="233" width="16" height="16" rx="6" fill="#CACED2"/>
<rect x="52" y="212" width="16" height="16" rx="6" fill="#CACED2"/>
<rect x="242" y="233" width="16" height="16" rx="6" fill="#CACED2"/>
<rect x="31" y="212" width="16" height="16" rx="6" fill="#CACED2"/>
<rect x="221" y="233" width="16" height="16" rx="6" fill="#CACED2"/>
<rect x="200" y="233" width="16" height="16" rx="6" fill="#CACED2"/>
<rect x="178" y="233" width="16" height="16" rx="6" fill="#CACED2"/>
<rect x="157" y="212" width="16" height="16" rx="6" fill="#CACED2"/>
<rect x="136" y="212" width="16" height="16" rx="6" fill="#CACED2"/>
<rect x="369" y="233" width="16" height="16" rx="6" fill="#CACED2"/>
<rect x="115" y="212" width="16" height="16" rx="6" fill="#CACED2"/>
<rect x="73" y="465" width="16" height="16" rx="6" fill="#CACED2"/>
<rect x="94" y="465" width="16" height="16" rx="6" fill="#CACED2"/>
<rect x="31" y="465" width="16" height="16" rx="6" fill="#CACED2"/>
<rect x="52" y="465" width="16" height="16" rx="6" fill="#CACED2"/>
<rect x="115" y="465" width="16" height="16" rx="6" fill="#CACED2"/>
<rect x="136" y="465" width="16" height="16" rx="6" fill="#CACED2"/>
<rect x="157" y="148" width="16" height="16" rx="6" fill="#CACED2"/>
<rect x="411" y="169" width="16" height="16" rx="6" fill="#CACED2"/>
<rect x="136" y="148" width="16" height="16" rx="6" fill="#CACED2"/>
<rect x="390" y="169" width="16" height="16" rx="6" fill="#CACED2"/>
<rect x="115" y="148" width="16" height="16" rx="6" fill="#CACED2"/>
<rect x="94" y="148" width="16" height="16" rx="6" fill="#CACED2"/>
<rect x="73" y="148" width="16" height="16" rx="6" fill="#CACED2"/>
<rect x="52" y="148" width="16" height="16" rx="6" fill="#CACED2"/>
<rect x="31" y="148" width="16" height="16" rx="6" fill="#CACED2"/>
<rect x="200" y="402" width="16" height="16" rx="6" fill="#CACED2"/>
<rect x="221" y="402" width="16" height="16" rx="6" fill="#CACED2"/>
<rect x="178" y="402" width="16" height="16" rx="6" fill="#CACED2"/>
<rect x="136" y="402" width="16" height="16" rx="6" fill="#CACED2"/>
<rect x="411" y="423" width="16" height="16" rx="6" fill="#CACED2"/>
<rect x="157" y="402" width="16" height="16" rx="6" fill="#CACED2"/>
<rect x="94" y="402" width="16" height="16" rx="6" fill="#CACED2"/>
<rect x="115" y="402" width="16" height="16" rx="6" fill="#CACED2"/>
<rect x="52" y="402" width="16" height="16" rx="6" fill="#CACED2"/>
<rect x="73" y="402" width="16" height="16" rx="6" fill="#CACED2"/>
<rect x="221" y="423" width="16" height="16" rx="6" fill="#CACED2"/>
<rect x="31" y="402" width="16" height="16" rx="6" fill="#CACED2"/>
<rect x="390" y="191" width="16" height="16" rx="6" fill="#CACED2"/>
<rect x="115" y="169" width="16" height="16" rx="6" fill="#CACED2"/>
<rect x="94" y="169" width="16" height="16" rx="6" fill="#CACED2"/>
<rect x="73" y="169" width="16" height="16" rx="6" fill="#CACED2"/>
<rect x="52" y="169" width="16" height="16" rx="6" fill="#CACED2"/>
<rect x="242" y="191" width="16" height="16" rx="6" fill="#CACED2"/>
<rect x="31" y="169" width="16" height="16" rx="6" fill="#CACED2"/>
<rect x="221" y="191" width="16" height="16" rx="6" fill="#CACED2"/>
<rect x="200" y="191" width="16" height="16" rx="6" fill="#CACED2"/>
<rect x="178" y="423" width="16" height="16" rx="6" fill="#CACED2"/>
<rect x="200" y="423" width="16" height="16" rx="6" fill="#CACED2"/>
<rect x="411" y="191" width="16" height="16" rx="6" fill="#CACED2"/>
<rect x="115" y="423" width="16" height="16" rx="6" fill="#CACED2"/>
<rect x="136" y="423" width="16" height="16" rx="6" fill="#CACED2"/>
<rect x="505" y="697" width="16" height="16" rx="6" fill="#CACED2"/>
<rect x="484" y="697" width="16" height="16" rx="6" fill="#CACED2"/>
<rect x="463" y="697" width="16" height="16" rx="6" fill="#CACED2"/>
<rect x="200" y="444" width="16" height="16" rx="6" fill="#CACED2"/>
<rect x="221" y="444" width="16" height="16" rx="6" fill="#CACED2"/>
<rect x="178" y="191" width="16" height="16" rx="6" fill="#CACED2"/>
<rect x="442" y="697" width="16" height="16" rx="6" fill="#CACED2"/>
<rect x="420" y="697" width="16" height="16" rx="6" fill="#CACED2"/>
<rect x="157" y="423" width="16" height="16" rx="6" fill="#CACED2"/>
<rect x="399" y="697" width="16" height="16" rx="6" fill="#CACED2"/>
<rect x="411" y="127" width="16" height="16" rx="6" fill="#CACED2"/>
<rect x="94" y="106" width="16" height="16" rx="6" fill="#CACED2"/>
<rect x="390" y="127" width="16" height="16" rx="6" fill="#CACED2"/>
<rect x="369" y="127" width="16" height="16" rx="6" fill="#CACED2"/>
<rect x="347" y="127" width="16" height="16" rx="6" fill="#CACED2"/>
<rect x="284" y="127" width="16" height="16" rx="6" fill="#CACED2"/>
<rect x="263" y="127" width="16" height="16" rx="6" fill="#CACED2"/>
<rect x="31" y="338" width="16" height="16" rx="6" fill="#CACED2"/>
<rect x="52" y="338" width="16" height="16" rx="6" fill="#CACED2"/>
<rect x="200" y="360" width="16" height="16" rx="6" fill="#CACED2"/>
<rect x="221" y="360" width="16" height="16" rx="6" fill="#CACED2"/>
<rect x="178" y="360" width="16" height="16" rx="6" fill="#CACED2"/>
<rect x="136" y="360" width="16" height="16" rx="6" fill="#CACED2"/>
<rect x="390" y="381" width="16" height="16" rx="6" fill="#CACED2"/>
<rect x="157" y="360" width="16" height="16" rx="6" fill="#CACED2"/>
<rect x="411" y="381" width="16" height="16" rx="6" fill="#CACED2"/>
<rect x="94" y="360" width="16" height="16" rx="6" fill="#CACED2"/>
<rect x="115" y="360" width="16" height="16" rx="6" fill="#CACED2"/>
<rect x="52" y="360" width="16" height="16" rx="6" fill="#CACED2"/>
<rect x="263" y="381" width="16" height="16" rx="6" fill="#CACED2"/>
<rect x="73" y="360" width="16" height="16" rx="6" fill="#CACED2"/>
<rect x="284" y="381" width="16" height="16" rx="6" fill="#CACED2"/>
<rect x="242" y="127" width="16" height="16" rx="6" fill="#CACED2"/>
<rect x="221" y="127" width="16" height="16" rx="6" fill="#CACED2"/>
<rect x="200" y="127" width="16" height="16" rx="6" fill="#CACED2"/>
<rect x="178" y="127" width="16" height="16" rx="6" fill="#CACED2"/>
<rect x="157" y="127" width="16" height="16" rx="6" fill="#CACED2"/>
<rect x="136" y="127" width="16" height="16" rx="6" fill="#CACED2"/>
<rect x="115" y="127" width="16" height="16" rx="6" fill="#CACED2"/>
<rect x="94" y="127" width="16" height="16" rx="6" fill="#CACED2"/>
<rect x="73" y="127" width="16" height="16" rx="6" fill="#CACED2"/>
<rect x="52" y="127" width="16" height="16" rx="6" fill="#CACED2"/>
<rect x="31" y="127" width="16" height="16" rx="6" fill="#CACED2"/>
<rect x="221" y="381" width="16" height="16" rx="6" fill="#CACED2"/>
<rect x="31" y="360" width="16" height="16" rx="6" fill="#CACED2"/>
<rect x="242" y="381" width="16" height="16" rx="6" fill="#CACED2"/>
<rect x="178" y="381" width="16" height="16" rx="6" fill="#CACED2"/>
<rect x="200" y="381" width="16" height="16" rx="6" fill="#CACED2"/>
<rect x="411" y="402" width="16" height="16" rx="6" fill="#CACED2"/>
<rect x="157" y="381" width="16" height="16" rx="6" fill="#CACED2"/>
<rect x="115" y="381" width="16" height="16" rx="6" fill="#CACED2"/>
<rect x="136" y="381" width="16" height="16" rx="6" fill="#CACED2"/>
<rect x="94" y="381" width="16" height="16" rx="6" fill="#CACED2"/>
<rect x="200" y="148" width="16" height="16" rx="6" fill="#CACED2"/>
<rect x="178" y="148" width="16" height="16" rx="6" fill="#CACED2"/>
<rect x="284" y="296" width="16" height="16" rx="6" fill="#CACED2"/>
<rect x="263" y="296" width="16" height="16" rx="6" fill="#CACED2"/>
<rect x="136" y="296" width="16" height="16" rx="6" fill="#CACED2"/>
<rect x="157" y="296" width="16" height="16" rx="6" fill="#CACED2"/>
<rect x="420" y="634" width="16" height="16" rx="6" fill="#CACED2"/>
<rect x="399" y="634" width="16" height="16" rx="6" fill="#CACED2"/>
<rect x="505" y="634" width="16" height="16" rx="6" fill="#CACED2"/>
<rect x="484" y="634" width="16" height="16" rx="6" fill="#CACED2"/>
<rect x="463" y="634" width="16" height="16" rx="6" fill="#CACED2"/>
<rect x="442" y="634" width="16" height="16" rx="6" fill="#CACED2"/>
<rect x="242" y="106" width="16" height="16" rx="6" fill="#CACED2"/>
<rect x="221" y="106" width="16" height="16" rx="6" fill="#CACED2"/>
<rect x="157" y="338" width="16" height="16" rx="6" fill="#CACED2"/>
<rect x="622" y="613" width="16" height="16" rx="6" fill="#CACED2"/>
<rect x="115" y="338" width="16" height="16" rx="6" fill="#CACED2"/>
<rect x="136" y="338" width="16" height="16" rx="6" fill="#CACED2"/>
<rect x="73" y="338" width="16" height="16" rx="6" fill="#CACED2"/>
<rect x="94" y="338" width="16" height="16" rx="6" fill="#CACED2"/>
<rect x="200" y="106" width="16" height="16" rx="6" fill="#CACED2"/>
<rect x="442" y="613" width="16" height="16" rx="6" fill="#CACED2"/>
<rect x="178" y="106" width="16" height="16" rx="6" fill="#CACED2"/>
<rect x="420" y="613" width="16" height="16" rx="6" fill="#CACED2"/>
<rect x="157" y="106" width="16" height="16" rx="6" fill="#CACED2"/>
<rect x="399" y="613" width="16" height="16" rx="6" fill="#CACED2"/>
<rect x="136" y="106" width="16" height="16" rx="6" fill="#CACED2"/>
<rect x="115" y="106" width="16" height="16" rx="6" fill="#CACED2"/>
<rect x="505" y="613" width="16" height="16" rx="6" fill="#CACED2"/>
<rect x="484" y="613" width="16" height="16" rx="6" fill="#CACED2"/>
<rect x="463" y="613" width="16" height="16" rx="6" fill="#CACED2"/>
<rect x="463" y="676" width="16" height="16" rx="6" fill="#CACED2"/>
<rect x="442" y="676" width="16" height="16" rx="6" fill="#CACED2"/>
<rect x="420" y="676" width="16" height="16" rx="6" fill="#CACED2"/>
<rect x="399" y="676" width="16" height="16" rx="6" fill="#CACED2"/>
<rect x="505" y="655" width="16" height="16" rx="6" fill="#CACED2"/>
<rect x="411" y="296" width="16" height="16" rx="6" fill="#CACED2"/>
<rect x="390" y="296" width="16" height="16" rx="6" fill="#CACED2"/>
<rect x="399" y="655" width="16" height="16" rx="6" fill="#CACED2"/>
<rect x="484" y="655" width="16" height="16" rx="6" fill="#CACED2"/>
<rect x="463" y="655" width="16" height="16" rx="6" fill="#CACED2"/>
<rect x="442" y="655" width="16" height="16" rx="6" fill="#CACED2"/>
<rect x="420" y="655" width="16" height="16" rx="6" fill="#CACED2"/>
<rect x="442" y="529" width="16" height="16" rx="6" fill="#CACED2"/>
<rect x="420" y="529" width="16" height="16" rx="6" fill="#CACED2"/>
<rect x="399" y="529" width="16" height="16" rx="6" fill="#CACED2"/>
<rect x="505" y="550" width="16" height="16" rx="6" fill="#CACED2"/>
<rect x="484" y="550" width="16" height="16" rx="6" fill="#CACED2"/>
<rect x="463" y="550" width="16" height="16" rx="6" fill="#CACED2"/>
<rect x="442" y="550" width="16" height="16" rx="6" fill="#CACED2"/>
<rect x="622" y="550" width="16" height="16" rx="6" fill="#CACED2"/>
<rect x="601" y="550" width="16" height="16" rx="6" fill="#CACED2"/>
<rect x="580" y="529" width="16" height="16" rx="6" fill="#CACED2"/>
<rect x="505" y="529" width="16" height="16" rx="6" fill="#CACED2"/>
<rect x="484" y="529" width="16" height="16" rx="6" fill="#CACED2"/>
<rect x="463" y="529" width="16" height="16" rx="6" fill="#CACED2"/>
<rect x="622" y="529" width="16" height="16" rx="6" fill="#CACED2"/>
<rect x="601" y="529" width="16" height="16" rx="6" fill="#CACED2"/>
<rect x="399" y="571" width="16" height="16" rx="6" fill="#CACED2"/>
<rect x="622" y="592" width="16" height="16" rx="6" fill="#CACED2"/>
<rect x="463" y="592" width="16" height="16" rx="6" fill="#CACED2"/>
<rect x="442" y="592" width="16" height="16" rx="6" fill="#CACED2"/>
<rect x="420" y="592" width="16" height="16" rx="6" fill="#CACED2"/>
<rect x="399" y="592" width="16" height="16" rx="6" fill="#CACED2"/>
<rect x="505" y="592" width="16" height="16" rx="6" fill="#CACED2"/>
<rect x="484" y="592" width="16" height="16" rx="6" fill="#CACED2"/>
<rect x="420" y="550" width="16" height="16" rx="6" fill="#CACED2"/>
<rect x="399" y="550" width="16" height="16" rx="6" fill="#CACED2"/>
<rect x="484" y="571" width="16" height="16" rx="6" fill="#CACED2"/>
<rect x="420" y="571" width="16" height="16" rx="6" fill="#CACED2"/>
<rect x="622" y="571" width="16" height="16" rx="6" fill="#CACED2"/>
<rect x="601" y="571" width="16" height="16" rx="6" fill="#CACED2"/>
<rect x="505" y="571" width="16" height="16" rx="6" fill="#CACED2"/>
<rect x="559" y="254" width="16" height="16" rx="6" fill="#CACED2"/>
<rect x="538" y="254" width="16" height="16" rx="6" fill="#CACED2"/>
<rect x="516" y="254" width="16" height="16" rx="6" fill="#CACED2"/>
<rect x="495" y="254" width="16" height="16" rx="6" fill="#CACED2"/>
<rect x="474" y="254" width="16" height="16" rx="6" fill="#CACED2"/>
<rect x="453" y="254" width="16" height="16" rx="6" fill="#CACED2"/>
<rect x="432" y="254" width="16" height="16" rx="6" fill="#CACED2"/>
<rect x="601" y="254" width="16" height="16" rx="6" fill="#CACED2"/>
<rect x="580" y="254" width="16" height="16" rx="6" fill="#CACED2"/>
<rect x="538" y="275" width="16" height="16" rx="6" fill="#CACED2"/>
<rect x="516" y="275" width="16" height="16" rx="6" fill="#CACED2"/>
<rect x="495" y="275" width="16" height="16" rx="6" fill="#CACED2"/>
<rect x="474" y="275" width="16" height="16" rx="6" fill="#CACED2"/>
<rect x="601" y="275" width="16" height="16" rx="6" fill="#CACED2"/>
<rect x="580" y="275" width="16" height="16" rx="6" fill="#CACED2"/>
<rect x="559" y="275" width="16" height="16" rx="6" fill="#CACED2"/>
<rect x="601" y="444" width="16" height="16" rx="6" fill="#CACED2"/>
<rect x="559" y="444" width="16" height="16" rx="6" fill="#CACED2"/>
<rect x="580" y="444" width="16" height="16" rx="6" fill="#CACED2"/>
<rect x="516" y="444" width="16" height="16" rx="6" fill="#CACED2"/>
<rect x="538" y="444" width="16" height="16" rx="6" fill="#CACED2"/>
<rect x="474" y="444" width="16" height="16" rx="6" fill="#CACED2"/>
<rect x="495" y="444" width="16" height="16" rx="6" fill="#CACED2"/>
<rect x="453" y="191" width="16" height="16" rx="6" fill="#CACED2"/>
<rect x="432" y="191" width="16" height="16" rx="6" fill="#CACED2"/>
<rect x="601" y="212" width="16" height="16" rx="6" fill="#CACED2"/>
<rect x="580" y="212" width="16" height="16" rx="6" fill="#CACED2"/>
<rect x="559" y="212" width="16" height="16" rx="6" fill="#CACED2"/>
<rect x="538" y="212" width="16" height="16" rx="6" fill="#CACED2"/>
<rect x="516" y="212" width="16" height="16" rx="6" fill="#CACED2"/>
<rect x="495" y="212" width="16" height="16" rx="6" fill="#CACED2"/>
<rect x="474" y="212" width="16" height="16" rx="6" fill="#CACED2"/>
<rect x="453" y="212" width="16" height="16" rx="6" fill="#CACED2"/>
<rect x="453" y="444" width="16" height="16" rx="6" fill="#CACED2"/>
<rect x="580" y="465" width="16" height="16" rx="6" fill="#CACED2"/>
<rect x="601" y="465" width="16" height="16" rx="6" fill="#CACED2"/>
<rect x="538" y="465" width="16" height="16" rx="6" fill="#CACED2"/>
<rect x="559" y="465" width="16" height="16" rx="6" fill="#CACED2"/>
<rect x="495" y="465" width="16" height="16" rx="6" fill="#CACED2"/>
<rect x="516" y="465" width="16" height="16" rx="6" fill="#CACED2"/>
<rect x="453" y="465" width="16" height="16" rx="6" fill="#CACED2"/>
<rect x="474" y="465" width="16" height="16" rx="6" fill="#CACED2"/>
<rect x="432" y="212" width="16" height="16" rx="6" fill="#CACED2"/>
<rect x="580" y="233" width="16" height="16" rx="6" fill="#CACED2"/>
<rect x="559" y="233" width="16" height="16" rx="6" fill="#CACED2"/>
<rect x="538" y="233" width="16" height="16" rx="6" fill="#CACED2"/>
<rect x="516" y="233" width="16" height="16" rx="6" fill="#CACED2"/>
<rect x="453" y="233" width="16" height="16" rx="6" fill="#CACED2"/>
<rect x="432" y="233" width="16" height="16" rx="6" fill="#CACED2"/>
<rect x="432" y="465" width="16" height="16" rx="6" fill="#CACED2"/>
<rect x="601" y="233" width="16" height="16" rx="6" fill="#CACED2"/>
<rect x="601" y="402" width="16" height="16" rx="6" fill="#CACED2"/>
<rect x="559" y="402" width="16" height="16" rx="6" fill="#CACED2"/>
<rect x="146" y="697" width="16" height="16" rx="6" fill="#CACED2"/>
<rect x="580" y="402" width="16" height="16" rx="6" fill="#CACED2"/>
<rect x="125" y="697" width="16" height="16" rx="6" fill="#CACED2"/>
<rect x="516" y="402" width="16" height="16" rx="6" fill="#CACED2"/>
<rect x="538" y="402" width="16" height="16" rx="6" fill="#CACED2"/>
<rect x="453" y="148" width="16" height="16" rx="6" fill="#CACED2"/>
<rect x="432" y="148" width="16" height="16" rx="6" fill="#CACED2"/>
<rect x="601" y="169" width="16" height="16" rx="6" fill="#CACED2"/>
<rect x="580" y="169" width="16" height="16" rx="6" fill="#CACED2"/>
<rect x="559" y="169" width="16" height="16" rx="6" fill="#CACED2"/>
<rect x="538" y="169" width="16" height="16" rx="6" fill="#CACED2"/>
<rect x="516" y="169" width="16" height="16" rx="6" fill="#CACED2"/>
<rect x="474" y="402" width="16" height="16" rx="6" fill="#CACED2"/>
<rect x="495" y="402" width="16" height="16" rx="6" fill="#CACED2"/>
<rect x="432" y="402" width="16" height="16" rx="6" fill="#CACED2"/>
<rect x="453" y="402" width="16" height="16" rx="6" fill="#CACED2"/>
<rect x="580" y="423" width="16" height="16" rx="6" fill="#CACED2"/>
<rect x="601" y="423" width="16" height="16" rx="6" fill="#CACED2"/>
<rect x="230" y="697" width="16" height="16" rx="6" fill="#CACED2"/>
<rect x="538" y="423" width="16" height="16" rx="6" fill="#CACED2"/>
<rect x="378" y="697" width="16" height="16" rx="6" fill="#CACED2"/>
<rect x="167" y="676" width="16" height="16" rx="6" fill="#CACED2"/>
<rect x="559" y="423" width="16" height="16" rx="6" fill="#CACED2"/>
<rect x="357" y="697" width="16" height="16" rx="6" fill="#CACED2"/>
<rect x="146" y="676" width="16" height="16" rx="6" fill="#CACED2"/>
<rect x="495" y="423" width="16" height="16" rx="6" fill="#CACED2"/>
<rect x="125" y="676" width="16" height="16" rx="6" fill="#CACED2"/>
<rect x="516" y="423" width="16" height="16" rx="6" fill="#CACED2"/>
<rect x="209" y="697" width="16" height="16" rx="6" fill="#CACED2"/>
<rect x="188" y="697" width="16" height="16" rx="6" fill="#CACED2"/>
<rect x="495" y="191" width="16" height="16" rx="6" fill="#CACED2"/>
<rect x="474" y="191" width="16" height="16" rx="6" fill="#CACED2"/>
<rect x="453" y="423" width="16" height="16" rx="6" fill="#CACED2"/>
<rect x="474" y="423" width="16" height="16" rx="6" fill="#CACED2"/>
<rect x="432" y="423" width="16" height="16" rx="6" fill="#CACED2"/>
<rect x="167" y="697" width="16" height="16" rx="6" fill="#CACED2"/>
<rect x="601" y="360" width="16" height="16" rx="6" fill="#CACED2"/>
<rect x="580" y="360" width="16" height="16" rx="6" fill="#CACED2"/>
<rect x="474" y="106" width="16" height="16" rx="6" fill="#CACED2"/>
<rect x="453" y="106" width="16" height="16" rx="6" fill="#CACED2"/>
<rect x="432" y="106" width="16" height="16" rx="6" fill="#CACED2"/>
<rect x="411" y="106" width="16" height="16" rx="6" fill="#CACED2"/>
<rect x="390" y="106" width="16" height="16" rx="6" fill="#CACED2"/>
<rect x="601" y="127" width="16" height="16" rx="6" fill="#CACED2"/>
<rect x="580" y="127" width="16" height="16" rx="6" fill="#CACED2"/>
<rect x="559" y="127" width="16" height="16" rx="6" fill="#CACED2"/>
<rect x="538" y="127" width="16" height="16" rx="6" fill="#CACED2"/>
<rect x="580" y="381" width="16" height="16" rx="6" fill="#CACED2"/>
<rect x="601" y="381" width="16" height="16" rx="6" fill="#CACED2"/>
<rect x="538" y="381" width="16" height="16" rx="6" fill="#CACED2"/>
<rect x="559" y="381" width="16" height="16" rx="6" fill="#CACED2"/>
<rect x="516" y="127" width="16" height="16" rx="6" fill="#CACED2"/>
<rect x="495" y="127" width="16" height="16" rx="6" fill="#CACED2"/>
<rect x="474" y="127" width="16" height="16" rx="6" fill="#CACED2"/>
<rect x="453" y="127" width="16" height="16" rx="6" fill="#CACED2"/>
<rect x="432" y="127" width="16" height="16" rx="6" fill="#CACED2"/>
<rect x="601" y="148" width="16" height="16" rx="6" fill="#CACED2"/>
<rect x="580" y="148" width="16" height="16" rx="6" fill="#CACED2"/>
<rect x="559" y="148" width="16" height="16" rx="6" fill="#CACED2"/>
<rect x="538" y="148" width="16" height="16" rx="6" fill="#CACED2"/>
<rect x="495" y="381" width="16" height="16" rx="6" fill="#CACED2"/>
<rect x="516" y="381" width="16" height="16" rx="6" fill="#CACED2"/>
<rect x="453" y="381" width="16" height="16" rx="6" fill="#CACED2"/>
<rect x="474" y="381" width="16" height="16" rx="6" fill="#CACED2"/>
<rect x="432" y="381" width="16" height="16" rx="6" fill="#CACED2"/>
<rect x="357" y="634" width="16" height="16" rx="6" fill="#CACED2"/>
<rect x="146" y="613" width="16" height="16" rx="6" fill="#CACED2"/>
<rect x="125" y="613" width="16" height="16" rx="6" fill="#CACED2"/>
<rect x="336" y="634" width="16" height="16" rx="6" fill="#CACED2"/>
<rect x="52" y="613" width="16" height="16" rx="6" fill="#CACED2"/>
<rect x="31" y="613" width="16" height="16" rx="6" fill="#CACED2"/>
<rect x="378" y="634" width="16" height="16" rx="6" fill="#CACED2"/>
<rect x="167" y="613" width="16" height="16" rx="6" fill="#CACED2"/>
<rect x="188" y="634" width="16" height="16" rx="6" fill="#CACED2"/>
<rect x="10" y="613" width="16" height="16" rx="6" fill="#CACED2"/>
<rect x="251" y="634" width="16" height="16" rx="6" fill="#CACED2"/>
<rect x="230" y="634" width="16" height="16" rx="6" fill="#CACED2"/>
<rect x="209" y="634" width="16" height="16" rx="6" fill="#CACED2"/>
<rect x="516" y="296" width="16" height="16" rx="6" fill="#CACED2"/>
<rect x="474" y="296" width="16" height="16" rx="6" fill="#CACED2"/>
<rect x="495" y="296" width="16" height="16" rx="6" fill="#CACED2"/>
<rect x="432" y="296" width="16" height="16" rx="6" fill="#CACED2"/>
<rect x="453" y="296" width="16" height="16" rx="6" fill="#CACED2"/>
<rect x="336" y="613" width="16" height="16" rx="6" fill="#CACED2"/>
<rect x="315" y="613" width="16" height="16" rx="6" fill="#CACED2"/>
<rect x="580" y="338" width="16" height="16" rx="6" fill="#CACED2"/>
<rect x="601" y="338" width="16" height="16" rx="6" fill="#CACED2"/>
<rect x="209" y="613" width="16" height="16" rx="6" fill="#CACED2"/>
<rect x="188" y="613" width="16" height="16" rx="6" fill="#CACED2"/>
<rect x="294" y="613" width="16" height="16" rx="6" fill="#CACED2"/>
<rect x="273" y="613" width="16" height="16" rx="6" fill="#CACED2"/>
<rect x="251" y="613" width="16" height="16" rx="6" fill="#CACED2"/>
<rect x="230" y="613" width="16" height="16" rx="6" fill="#CACED2"/>
<rect x="495" y="106" width="16" height="16" rx="6" fill="#CACED2"/>
<rect x="538" y="338" width="16" height="16" rx="6" fill="#CACED2"/>
<rect x="559" y="338" width="16" height="16" rx="6" fill="#CACED2"/>
<rect x="495" y="338" width="16" height="16" rx="6" fill="#CACED2"/>
<rect x="516" y="338" width="16" height="16" rx="6" fill="#CACED2"/>
<rect x="474" y="338" width="16" height="16" rx="6" fill="#CACED2"/>
<rect x="273" y="676" width="16" height="16" rx="6" fill="#CACED2"/>
<rect x="251" y="676" width="16" height="16" rx="6" fill="#CACED2"/>
<rect x="167" y="655" width="16" height="16" rx="6" fill="#CACED2"/>
<rect x="146" y="655" width="16" height="16" rx="6" fill="#CACED2"/>
<rect x="125" y="655" width="16" height="16" rx="6" fill="#CACED2"/>
<rect x="230" y="676" width="16" height="16" rx="6" fill="#CACED2"/>
<rect x="209" y="676" width="16" height="16" rx="6" fill="#CACED2"/>
<rect x="188" y="676" width="16" height="16" rx="6" fill="#CACED2"/>
<rect x="336" y="655" width="16" height="16" rx="6" fill="#CACED2"/>
<rect x="125" y="634" width="16" height="16" rx="6" fill="#CACED2"/>
<rect x="315" y="655" width="16" height="16" rx="6" fill="#CACED2"/>
<rect x="294" y="655" width="16" height="16" rx="6" fill="#CACED2"/>
<rect x="273" y="655" width="16" height="16" rx="6" fill="#CACED2"/>
<rect x="378" y="655" width="16" height="16" rx="6" fill="#CACED2"/>
<rect x="167" y="634" width="16" height="16" rx="6" fill="#CACED2"/>
<rect x="357" y="655" width="16" height="16" rx="6" fill="#CACED2"/>
<rect x="146" y="634" width="16" height="16" rx="6" fill="#CACED2"/>
<rect x="251" y="655" width="16" height="16" rx="6" fill="#CACED2"/>
<rect x="230" y="655" width="16" height="16" rx="6" fill="#CACED2"/>
<rect x="209" y="655" width="16" height="16" rx="6" fill="#CACED2"/>
<rect x="188" y="655" width="16" height="16" rx="6" fill="#CACED2"/>
</svg>